<?xml version="1.0" encoding="us-ascii" standalone="no"?><svg xmlns="http://www.w3.org/2000/svg" xmlns:xlink="http://www.w3.org/1999/xlink" contentStyleType="text/css" height="2234px" preserveAspectRatio="none" style="width:1671px;height:2234px;background:#FFFFFF;" version="1.1" viewBox="0 0 1671 2234" width="1671px" zoomAndPan="magnify"><defs/><g><text fill="#000000" font-family="sans-serif" font-size="14" font-weight="bold" lengthAdjust="spacing" textLength="351" x="656.25" y="27.9951">WorkReserve Backend - Authentication Flow</text><rect fill="#FFFFFF" height="560.1953" style="stroke:#181818;stroke-width:1.0;" width="10" x="325.5" y="162.9922"/><rect fill="#FFFFFF" height="644.7891" style="stroke:#181818;stroke-width:1.0;" width="10" x="325.5" y="817.5859"/><rect fill="#FFFFFF" height="443.9922" style="stroke:#181818;stroke-width:1.0;" width="10" x="325.5" y="1656.8438"/><rect fill="#FFFFFF" height="501.9297" style="stroke:#181818;stroke-width:1.0;" width="10" x="650.5" y="192.125"/><rect fill="#FFFFFF" height="586.5234" style="stroke:#181818;stroke-width:1.0;" width="10" x="650.5" y="846.7188"/><rect fill="#FFFFFF" height="385.7266" style="stroke:#181818;stroke-width:1.0;" width="10" x="650.5" y="1685.9766"/><rect fill="#FFFFFF" height="187.7969" style="stroke:#181818;stroke-width:1.0;" width="10" x="873.5" y="875.8516"/><rect fill="#FFFFFF" height="113.3984" style="stroke:#181818;stroke-width:1.0;" width="10" x="1029.5" y="1174.1797"/><rect fill="#FFFFFF" height="87.3984" style="stroke:#181818;stroke-width:1.0;" width="10" x="1190.5" y="221.2578"/><rect fill="#FFFFFF" height="87.3984" style="stroke:#181818;stroke-width:1.0;" width="10" x="1190.5" y="477.125"/><rect fill="#FFFFFF" height="87.3984" style="stroke:#181818;stroke-width:1.0;" width="10" x="1190.5" y="904.9844"/><rect fill="#FFFFFF" height="87.3984" style="stroke:#181818;stroke-width:1.0;" width="10" x="1190.5" y="1316.7109"/><rect fill="#FFFFFF" height="87.3984" style="stroke:#181818;stroke-width:1.0;" width="10" x="1190.5" y="1781.375"/><rect fill="#FFFFFF" height="87.3984" style="stroke:#181818;stroke-width:1.0;" width="10" x="1190.5" y="1955.1719"/><rect fill="#FFFFFF" height="71.2656" style="stroke:#181818;stroke-width:1.0;" width="10" x="1305.5" y="593.6563"/><rect fill="#FFFFFF" height="29.1328" style="stroke:#181818;stroke-width:1.0;" width="10" x="1599.5" y="250.3906"/><rect fill="#FFFFFF" height="29.1328" style="stroke:#181818;stroke-width:1.0;" width="10" x="1599.5" y="506.2578"/><rect fill="#FFFFFF" height="29.1328" style="stroke:#181818;stroke-width:1.0;" width="10" x="1599.5" y="934.1172"/><rect fill="#FFFFFF" height="29.1328" style="stroke:#181818;stroke-width:1.0;" width="10" x="1599.5" y="1345.8438"/><rect fill="#FFFFFF" height="29.1328" style="stroke:#181818;stroke-width:1.0;" width="10" x="1599.5" y="1810.5078"/><rect fill="#FFFFFF" height="29.1328" style="stroke:#181818;stroke-width:1.0;" width="10" x="1599.5" y="1984.3047"/><rect fill="none" height="407.5313" style="stroke:#000000;stroke-width:1.5;" width="1644.5" x="10" y="323.6563"/><rect fill="none" height="506.9297" style="stroke:#000000;stroke-width:1.5;" width="1644.5" x="10" y="1078.6484"/><rect fill="none" height="438.7969" style="stroke:#000000;stroke-width:1.5;" width="1644.5" x="10" y="1743.1094"/><line style="stroke:#181818;stroke-width:0.5;stroke-dasharray:5.0,5.0;" x1="46" x2="46" y1="73.5938" y2="2198.9063"/><line style="stroke:#181818;stroke-width:0.5;stroke-dasharray:5.0,5.0;" x1="330" x2="330" y1="73.5938" y2="2198.9063"/><line style="stroke:#181818;stroke-width:0.5;stroke-dasharray:5.0,5.0;" x1="655.5" x2="655.5" y1="73.5938" y2="2198.9063"/><line style="stroke:#181818;stroke-width:0.5;stroke-dasharray:5.0,5.0;" x1="878.5" x2="878.5" y1="73.5938" y2="2198.9063"/><line style="stroke:#181818;stroke-width:0.5;stroke-dasharray:5.0,5.0;" x1="1034" x2="1034" y1="73.5938" y2="2198.9063"/><line style="stroke:#181818;stroke-width:0.5;stroke-dasharray:5.0,5.0;" x1="1195.5" x2="1195.5" y1="73.5938" y2="2198.9063"/><line style="stroke:#181818;stroke-width:0.5;stroke-dasharray:5.0,5.0;" x1="1310.5" x2="1310.5" y1="73.5938" y2="2198.9063"/><line style="stroke:#181818;stroke-width:0.5;stroke-dasharray:5.0,5.0;" x1="1604.5" x2="1604.5" y1="73.5938" y2="2198.9063"/><rect fill="#E2E2F0" height="30.2969" rx="2.5" ry="2.5" style="stroke:#181818;stroke-width:0.5;" width="53" x="20" y="42.2969"/><text fill="#000000" font-family="sans-serif" font-size="14" lengthAdjust="spacing" textLength="39" x="27" y="62.292">Client</text><rect fill="#E2E2F0" height="30.2969" rx="2.5" ry="2.5" style="stroke:#181818;stroke-width:0.5;" width="53" x="20" y="2197.9063"/><text fill="#000000" font-family="sans-serif" font-size="14" lengthAdjust="spacing" textLength="39" x="27" y="2217.9014">Client</text><rect fill="#E2E2F0" height="30.2969" rx="2.5" ry="2.5" style="stroke:#181818;stroke-width:0.5;" width="113" x="274" y="42.2969"/><text fill="#000000" font-family="sans-serif" font-size="14" lengthAdjust="spacing" textLength="99" x="281" y="62.292">AuthController</text><rect fill="#E2E2F0" height="30.2969" rx="2.5" ry="2.5" style="stroke:#181818;stroke-width:0.5;" width="113" x="274" y="2197.9063"/><text fill="#000000" font-family="sans-serif" font-size="14" lengthAdjust="spacing" textLength="99" x="281" y="2217.9014">AuthController</text><rect fill="#E2E2F0" height="30.2969" rx="2.5" ry="2.5" style="stroke:#181818;stroke-width:0.5;" width="96" x="607.5" y="42.2969"/><text fill="#000000" font-family="sans-serif" font-size="14" lengthAdjust="spacing" textLength="82" x="614.5" y="62.292">UserService</text><rect fill="#E2E2F0" height="30.2969" rx="2.5" ry="2.5" style="stroke:#181818;stroke-width:0.5;" width="96" x="607.5" y="2197.9063"/><text fill="#000000" font-family="sans-serif" font-size="14" lengthAdjust="spacing" textLength="82" x="614.5" y="2217.9014">UserService</text><rect fill="#E2E2F0" height="30.2969" rx="2.5" ry="2.5" style="stroke:#181818;stroke-width:0.5;" width="174" x="791.5" y="42.2969"/><text fill="#000000" font-family="sans-serif" font-size="14" lengthAdjust="spacing" textLength="160" x="798.5" y="62.292">AuthenticationManager</text><rect fill="#E2E2F0" height="30.2969" rx="2.5" ry="2.5" style="stroke:#181818;stroke-width:0.5;" width="174" x="791.5" y="2197.9063"/><text fill="#000000" font-family="sans-serif" font-size="14" lengthAdjust="spacing" textLength="160" x="798.5" y="2217.9014">AuthenticationManager</text><rect fill="#E2E2F0" height="30.2969" rx="2.5" ry="2.5" style="stroke:#181818;stroke-width:0.5;" width="83" x="993" y="42.2969"/><text fill="#000000" font-family="sans-serif" font-size="14" lengthAdjust="spacing" textLength="69" x="1000" y="62.292">JwtService</text><rect fill="#E2E2F0" height="30.2969" rx="2.5" ry="2.5" style="stroke:#181818;stroke-width:0.5;" width="83" x="993" y="2197.9063"/><text fill="#000000" font-family="sans-serif" font-size="14" lengthAdjust="spacing" textLength="69" x="1000" y="2217.9014">JwtService</text><rect fill="#E2E2F0" height="30.2969" rx="2.5" ry="2.5" style="stroke:#181818;stroke-width:0.5;" width="120" x="1135.5" y="42.2969"/><text fill="#000000" font-family="sans-serif" font-size="14" lengthAdjust="spacing" textLength="106" x="1142.5" y="62.292">UserRepository</text><rect fill="#E2E2F0" height="30.2969" rx="2.5" ry="2.5" style="stroke:#181818;stroke-width:0.5;" width="120" x="1135.5" y="2197.9063"/><text fill="#000000" font-family="sans-serif" font-size="14" lengthAdjust="spacing" textLength="106" x="1142.5" y="2217.9014">UserRepository</text><rect fill="#E2E2F0" height="30.2969" rx="2.5" ry="2.5" style="stroke:#181818;stroke-width:0.5;" width="90" x="1265.5" y="42.2969"/><text fill="#000000" font-family="sans-serif" font-size="14" lengthAdjust="spacing" textLength="76" x="1272.5" y="62.292">MailService</text><rect fill="#E2E2F0" height="30.2969" rx="2.5" ry="2.5" style="stroke:#181818;stroke-width:0.5;" width="90" x="1265.5" y="2197.9063"/><text fill="#000000" font-family="sans-serif" font-size="14" lengthAdjust="spacing" textLength="76" x="1272.5" y="2217.9014">MailService</text><rect fill="#E2E2F0" height="30.2969" rx="2.5" ry="2.5" style="stroke:#181818;stroke-width:0.5;" width="80" x="1564.5" y="42.2969"/><text fill="#000000" font-family="sans-serif" font-size="14" lengthAdjust="spacing" textLength="66" x="1571.5" y="62.292">Database</text><rect fill="#E2E2F0" height="30.2969" rx="2.5" ry="2.5" style="stroke:#181818;stroke-width:0.5;" width="80" x="1564.5" y="2197.9063"/><text fill="#000000" font-family="sans-serif" font-size="14" lengthAdjust="spacing" textLength="66" x="1571.5" y="2217.9014">Database</text><rect fill="#FFFFFF" height="560.1953" style="stroke:#181818;stroke-width:1.0;" width="10" x="325.5" y="162.9922"/><rect fill="#FFFFFF" height="644.7891" style="stroke:#181818;stroke-width:1.0;" width="10" x="325.5" y="817.5859"/><rect fill="#FFFFFF" height="443.9922" style="stroke:#181818;stroke-width:1.0;" width="10" x="325.5" y="1656.8438"/><rect fill="#FFFFFF" height="501.9297" style="stroke:#181818;stroke-width:1.0;" width="10" x="650.5" y="192.125"/><rect fill="#FFFFFF" height="586.5234" style="stroke:#181818;stroke-width:1.0;" width="10" x="650.5" y="846.7188"/><rect fill="#FFFFFF" height="385.7266" style="stroke:#181818;stroke-width:1.0;" width="10" x="650.5" y="1685.9766"/><rect fill="#FFFFFF" height="187.7969" style="stroke:#181818;stroke-width:1.0;" width="10" x="873.5" y="875.8516"/><rect fill="#FFFFFF" height="113.3984" style="stroke:#181818;stroke-width:1.0;" width="10" x="1029.5" y="1174.1797"/><rect fill="#FFFFFF" height="87.3984" style="stroke:#181818;stroke-width:1.0;" width="10" x="1190.5" y="221.2578"/><rect fill="#FFFFFF" height="87.3984" style="stroke:#181818;stroke-width:1.0;" width="10" x="1190.5" y="477.125"/><rect fill="#FFFFFF" height="87.3984" style="stroke:#181818;stroke-width:1.0;" width="10" x="1190.5" y="904.9844"/><rect fill="#FFFFFF" height="87.3984" style="stroke:#181818;stroke-width:1.0;" width="10" x="1190.5" y="1316.7109"/><rect fill="#FFFFFF" height="87.3984" style="stroke:#181818;stroke-width:1.0;" width="10" x="1190.5" y="1781.375"/><rect fill="#FFFFFF" height="87.3984" style="stroke:#181818;stroke-width:1.0;" width="10" x="1190.5" y="1955.1719"/><rect fill="#FFFFFF" height="71.2656" style="stroke:#181818;stroke-width:1.0;" width="10" x="1305.5" y="593.6563"/><rect fill="#FFFFFF" height="29.1328" style="stroke:#181818;stroke-width:1.0;" width="10" x="1599.5" y="250.3906"/><rect fill="#FFFFFF" height="29.1328" style="stroke:#181818;stroke-width:1.0;" width="10" x="1599.5" y="506.2578"/><rect fill="#FFFFFF" height="29.1328" style="stroke:#181818;stroke-width:1.0;" width="10" x="1599.5" y="934.1172"/><rect fill="#FFFFFF" height="29.1328" style="stroke:#181818;stroke-width:1.0;" width="10" x="1599.5" y="1345.8438"/><rect fill="#FFFFFF" height="29.1328" style="stroke:#181818;stroke-width:1.0;" width="10" x="1599.5" y="1810.5078"/><rect fill="#FFFFFF" height="29.1328" style="stroke:#181818;stroke-width:1.0;" width="10" x="1599.5" y="1984.3047"/><rect fill="#EEEEEE" height="3" style="stroke:#EEEEEE;stroke-width:1.0;" width="1664.5" x="0" y="104.1602"/><line style="stroke:#000000;stroke-width:1.0;" x1="0" x2="1664.5" y1="104.1602" y2="104.1602"/><line style="stroke:#000000;stroke-width:1.0;" x1="0" x2="1664.5" y1="107.1602" y2="107.1602"/><rect fill="#EEEEEE" height="23.1328" style="stroke:#000000;stroke-width:2.0;" width="147" x="758.75" y="93.5938"/><text fill="#000000" font-family="sans-serif" font-size="13" font-weight="bold" lengthAdjust="spacing" textLength="128" x="764.75" y="109.6606">User Registration</text><polygon fill="#181818" points="313.5,158.9922,323.5,162.9922,313.5,166.9922,317.5,162.9922" style="stroke:#181818;stroke-width:1.0;"/><line style="stroke:#181818;stroke-width:1.0;" x1="46.5" x2="319.5" y1="162.9922" y2="162.9922"/><text fill="#000000" font-family="sans-serif" font-size="13" lengthAdjust="spacing" textLength="147" x="53.5" y="142.7935">POST /api/auth/register</text><text fill="#000000" font-family="sans-serif" font-size="13" lengthAdjust="spacing" textLength="260" x="53.5" y="157.9263">{email, password, firstName, lastName}</text><polygon fill="#181818" points="638.5,188.125,648.5,192.125,638.5,196.125,642.5,192.125" style="stroke:#181818;stroke-width:1.0;"/><line style="stroke:#181818;stroke-width:1.0;" x1="335.5" x2="644.5" y1="192.125" y2="192.125"/><text fill="#000000" font-family="sans-serif" font-size="13" lengthAdjust="spacing" textLength="138" x="342.5" y="187.0591">registerUser(request)</text><polygon fill="#181818" points="1178.5,217.2578,1188.5,221.2578,1178.5,225.2578,1182.5,221.2578" style="stroke:#181818;stroke-width:1.0;"/><line style="stroke:#181818;stroke-width:1.0;" x1="660.5" x2="1184.5" y1="221.2578" y2="221.2578"/><text fill="#000000" font-family="sans-serif" font-size="13" lengthAdjust="spacing" textLength="119" x="667.5" y="216.1919">findByEmail(email)</text><polygon fill="#181818" points="1587.5,246.3906,1597.5,250.3906,1587.5,254.3906,1591.5,250.3906" style="stroke:#181818;stroke-width:1.0;"/><line style="stroke:#181818;stroke-width:1.0;" x1="1200.5" x2="1593.5" y1="250.3906" y2="250.3906"/><text fill="#000000" font-family="sans-serif" font-size="13" lengthAdjust="spacing" textLength="252" x="1207.5" y="245.3247">SELECT * FROM users WHERE email = ?</text><polygon fill="#181818" points="1211.5,275.5234,1201.5,279.5234,1211.5,283.5234,1207.5,279.5234" style="stroke:#181818;stroke-width:1.0;"/><line style="stroke:#181818;stroke-width:1.0;stroke-dasharray:2.0,2.0;" x1="1205.5" x2="1603.5" y1="279.5234" y2="279.5234"/><text fill="#000000" font-family="sans-serif" font-size="13" lengthAdjust="spacing" textLength="73" x="1217.5" y="274.4575">User or null</text><polygon fill="#181818" points="671.5,304.6563,661.5,308.6563,671.5,312.6563,667.5,308.6563" style="stroke:#181818;stroke-width:1.0;"/><line style="stroke:#181818;stroke-width:1.0;stroke-dasharray:2.0,2.0;" x1="665.5" x2="1194.5" y1="308.6563" y2="308.6563"/><text fill="#000000" font-family="sans-serif" font-size="13" lengthAdjust="spacing" textLength="105" x="677.5" y="303.5903">Optional&lt;User&gt;</text><path d="M10,323.6563 L74,323.6563 L74,330.7891 L64,340.7891 L10,340.7891 L10,323.6563 " fill="#EEEEEE" style="stroke:#000000;stroke-width:1.5;"/><rect fill="none" height="407.5313" style="stroke:#000000;stroke-width:1.5;" width="1644.5" x="10" y="323.6563"/><text fill="#000000" font-family="sans-serif" font-size="13" font-weight="bold" lengthAdjust="spacing" textLength="19" x="25" y="336.7231">alt</text><text fill="#000000" font-family="sans-serif" font-size="11" font-weight="bold" lengthAdjust="spacing" textLength="139" x="89" y="335.8667">[Email already exists]</text><polygon fill="#181818" points="346.5,357.9219,336.5,361.9219,346.5,365.9219,342.5,361.9219" style="stroke:#181818;stroke-width:1.0;"/><line style="stroke:#181818;stroke-width:1.0;stroke-dasharray:2.0,2.0;" x1="340.5" x2="649.5" y1="361.9219" y2="361.9219"/><text fill="#000000" font-family="sans-serif" font-size="13" lengthAdjust="spacing" textLength="278" x="352.5" y="356.856">throw UserException("Email already exists")</text><polygon fill="#181818" points="57.5,387.0547,47.5,391.0547,57.5,395.0547,53.5,391.0547" style="stroke:#181818;stroke-width:1.0;"/><line style="stroke:#181818;stroke-width:1.0;stroke-dasharray:2.0,2.0;" x1="51.5" x2="324.5" y1="391.0547" y2="391.0547"/><text fill="#000000" font-family="sans-serif" font-size="13" lengthAdjust="spacing" textLength="109" x="63.5" y="385.9888">400 Bad Request</text><line style="stroke:#000000;stroke-width:1.0;stroke-dasharray:2.0,2.0;" x1="10" x2="1654.5" y1="400.0547" y2="400.0547"/><text fill="#000000" font-family="sans-serif" font-size="11" font-weight="bold" lengthAdjust="spacing" textLength="108" x="15" y="410.2651">[Email available]</text><line style="stroke:#181818;stroke-width:1.0;" x1="660.5" x2="702.5" y1="434.9922" y2="434.9922"/><line style="stroke:#181818;stroke-width:1.0;" x1="702.5" x2="702.5" y1="434.9922" y2="447.9922"/><line style="stroke:#181818;stroke-width:1.0;" x1="661.5" x2="702.5" y1="447.9922" y2="447.9922"/><polygon fill="#181818" points="671.5,443.9922,661.5,447.9922,671.5,451.9922,667.5,447.9922" style="stroke:#181818;stroke-width:1.0;"/><text fill="#000000" font-family="sans-serif" font-size="13" lengthAdjust="spacing" textLength="177" x="667.5" y="429.9263">encodePassword(password)</text><polygon fill="#181818" points="1178.5,473.125,1188.5,477.125,1178.5,481.125,1182.5,477.125" style="stroke:#181818;stroke-width:1.0;"/><line style="stroke:#181818;stroke-width:1.0;" x1="660.5" x2="1184.5" y1="477.125" y2="477.125"/><text fill="#000000" font-family="sans-serif" font-size="13" lengthAdjust="spacing" textLength="95" x="667.5" y="472.0591">save(newUser)</text><polygon fill="#181818" points="1587.5,502.2578,1597.5,506.2578,1587.5,510.2578,1591.5,506.2578" style="stroke:#181818;stroke-width:1.0;"/><line style="stroke:#181818;stroke-width:1.0;" x1="1200.5" x2="1593.5" y1="506.2578" y2="506.2578"/><text fill="#000000" font-family="sans-serif" font-size="13" lengthAdjust="spacing" textLength="144" x="1207.5" y="501.1919">INSERT INTO users (...)</text><polygon fill="#181818" points="1211.5,531.3906,1201.5,535.3906,1211.5,539.3906,1207.5,535.3906" style="stroke:#181818;stroke-width:1.0;"/><line style="stroke:#181818;stroke-width:1.0;stroke-dasharray:2.0,2.0;" x1="1205.5" x2="1603.5" y1="535.3906" y2="535.3906"/><text fill="#000000" font-family="sans-serif" font-size="13" lengthAdjust="spacing" textLength="47" x="1217.5" y="530.3247">User ID</text><polygon fill="#181818" points="671.5,560.5234,661.5,564.5234,671.5,568.5234,667.5,564.5234" style="stroke:#181818;stroke-width:1.0;"/><line style="stroke:#181818;stroke-width:1.0;stroke-dasharray:2.0,2.0;" x1="665.5" x2="1194.5" y1="564.5234" y2="564.5234"/><text fill="#000000" font-family="sans-serif" font-size="13" lengthAdjust="spacing" textLength="68" x="677.5" y="559.4575">savedUser</text><polygon fill="#181818" points="1293.5,589.6563,1303.5,593.6563,1293.5,597.6563,1297.5,593.6563" style="stroke:#181818;stroke-width:1.0;"/><line style="stroke:#181818;stroke-width:1.0;" x1="660.5" x2="1299.5" y1="593.6563" y2="593.6563"/><text fill="#000000" font-family="sans-serif" font-size="13" lengthAdjust="spacing" textLength="175" x="667.5" y="588.5903">sendVerificationEmail(user)</text><line style="stroke:#181818;stroke-width:1.0;" x1="1315.5" x2="1357.5" y1="622.7891" y2="622.7891"/><line style="stroke:#181818;stroke-width:1.0;" x1="1357.5" x2="1357.5" y1="622.7891" y2="635.7891"/><line style="stroke:#181818;stroke-width:1.0;" x1="1316.5" x2="1357.5" y1="635.7891" y2="635.7891"/><polygon fill="#181818" points="1326.5,631.7891,1316.5,635.7891,1326.5,639.7891,1322.5,635.7891" style="stroke:#181818;stroke-width:1.0;"/><text fill="#000000" font-family="sans-serif" font-size="13" lengthAdjust="spacing" textLength="177" x="1322.5" y="617.7231">generateVerificationToken()</text><polygon fill="#181818" points="671.5,660.9219,661.5,664.9219,671.5,668.9219,667.5,664.9219" style="stroke:#181818;stroke-width:1.0;"/><line style="stroke:#181818;stroke-width:1.0;stroke-dasharray:2.0,2.0;" x1="665.5" x2="1309.5" y1="664.9219" y2="664.9219"/><text fill="#000000" font-family="sans-serif" font-size="13" lengthAdjust="spacing" textLength="67" x="677.5" y="659.856">Email sent</text><polygon fill="#181818" points="346.5,690.0547,336.5,694.0547,346.5,698.0547,342.5,694.0547" style="stroke:#181818;stroke-width:1.0;"/><line style="stroke:#181818;stroke-width:1.0;stroke-dasharray:2.0,2.0;" x1="340.5" x2="654.5" y1="694.0547" y2="694.0547"/><text fill="#000000" font-family="sans-serif" font-size="13" lengthAdjust="spacing" textLength="291" x="352.5" y="688.9888">AuthResponse("User registered successfully")</text><polygon fill="#181818" points="57.5,719.1875,47.5,723.1875,57.5,727.1875,53.5,723.1875" style="stroke:#181818;stroke-width:1.0;"/><line style="stroke:#181818;stroke-width:1.0;stroke-dasharray:2.0,2.0;" x1="51.5" x2="329.5" y1="723.1875" y2="723.1875"/><text fill="#000000" font-family="sans-serif" font-size="13" lengthAdjust="spacing" textLength="46" x="63.5" y="718.1216">200 OK</text><rect fill="#EEEEEE" height="3" style="stroke:#EEEEEE;stroke-width:1.0;" width="1664.5" x="0" y="758.7539"/><line style="stroke:#000000;stroke-width:1.0;" x1="0" x2="1664.5" y1="758.7539" y2="758.7539"/><line style="stroke:#000000;stroke-width:1.0;" x1="0" x2="1664.5" y1="761.7539" y2="761.7539"/><rect fill="#EEEEEE" height="23.1328" style="stroke:#000000;stroke-width:2.0;" width="97" x="783.75" y="748.1875"/><text fill="#000000" font-family="sans-serif" font-size="13" font-weight="bold" lengthAdjust="spacing" textLength="78" x="789.75" y="764.2544">User Login</text><polygon fill="#181818" points="313.5,813.5859,323.5,817.5859,313.5,821.5859,317.5,817.5859" style="stroke:#181818;stroke-width:1.0;"/><line style="stroke:#181818;stroke-width:1.0;" x1="46.5" x2="319.5" y1="817.5859" y2="817.5859"/><text fill="#000000" font-family="sans-serif" font-size="13" lengthAdjust="spacing" textLength="128" x="53.5" y="797.3872">POST /api/auth/login</text><text fill="#000000" font-family="sans-serif" font-size="13" lengthAdjust="spacing" textLength="119" x="53.5" y="812.52">{email, password}</text><polygon fill="#181818" points="638.5,842.7188,648.5,846.7188,638.5,850.7188,642.5,846.7188" style="stroke:#181818;stroke-width:1.0;"/><line style="stroke:#181818;stroke-width:1.0;" x1="335.5" x2="644.5" y1="846.7188" y2="846.7188"/><text fill="#000000" font-family="sans-serif" font-size="13" lengthAdjust="spacing" textLength="119" x="342.5" y="841.6528">loginUser(request)</text><polygon fill="#181818" points="861.5,871.8516,871.5,875.8516,861.5,879.8516,865.5,875.8516" style="stroke:#181818;stroke-width:1.0;"/><line style="stroke:#181818;stroke-width:1.0;" x1="660.5" x2="867.5" y1="875.8516" y2="875.8516"/><text fill="#000000" font-family="sans-serif" font-size="13" lengthAdjust="spacing" textLength="194" x="667.5" y="870.7856">authenticate(email, password)</text><polygon fill="#181818" points="1178.5,900.9844,1188.5,904.9844,1178.5,908.9844,1182.5,904.9844" style="stroke:#181818;stroke-width:1.0;"/><line style="stroke:#181818;stroke-width:1.0;" x1="883.5" x2="1184.5" y1="904.9844" y2="904.9844"/><text fill="#000000" font-family="sans-serif" font-size="13" lengthAdjust="spacing" textLength="119" x="890.5" y="899.9185">findByEmail(email)</text><polygon fill="#181818" points="1587.5,930.1172,1597.5,934.1172,1587.5,938.1172,1591.5,934.1172" style="stroke:#181818;stroke-width:1.0;"/><line style="stroke:#181818;stroke-width:1.0;" x1="1200.5" x2="1593.5" y1="934.1172" y2="934.1172"/><text fill="#000000" font-family="sans-serif" font-size="13" lengthAdjust="spacing" textLength="252" x="1207.5" y="929.0513">SELECT * FROM users WHERE email = ?</text><polygon fill="#181818" points="1211.5,959.25,1201.5,963.25,1211.5,967.25,1207.5,963.25" style="stroke:#181818;stroke-width:1.0;"/><line style="stroke:#181818;stroke-width:1.0;stroke-dasharray:2.0,2.0;" x1="1205.5" x2="1603.5" y1="963.25" y2="963.25"/><text fill="#000000" font-family="sans-serif" font-size="13" lengthAdjust="spacing" textLength="63" x="1217.5" y="958.1841">User data</text><polygon fill="#181818" points="894.5,988.3828,884.5,992.3828,894.5,996.3828,890.5,992.3828" style="stroke:#181818;stroke-width:1.0;"/><line style="stroke:#181818;stroke-width:1.0;stroke-dasharray:2.0,2.0;" x1="888.5" x2="1194.5" y1="992.3828" y2="992.3828"/><text fill="#000000" font-family="sans-serif" font-size="13" lengthAdjust="spacing" textLength="74" x="900.5" y="987.3169">UserDetails</text><line style="stroke:#181818;stroke-width:1.0;" x1="883.5" x2="925.5" y1="1021.5156" y2="1021.5156"/><line style="stroke:#181818;stroke-width:1.0;" x1="925.5" x2="925.5" y1="1021.5156" y2="1034.5156"/><line style="stroke:#181818;stroke-width:1.0;" x1="884.5" x2="925.5" y1="1034.5156" y2="1034.5156"/><polygon fill="#181818" points="894.5,1030.5156,884.5,1034.5156,894.5,1038.5156,890.5,1034.5156" style="stroke:#181818;stroke-width:1.0;"/><text fill="#000000" font-family="sans-serif" font-size="13" lengthAdjust="spacing" textLength="132" x="890.5" y="1016.4497">validateCredentials()</text><polygon fill="#181818" points="671.5,1059.6484,661.5,1063.6484,671.5,1067.6484,667.5,1063.6484" style="stroke:#181818;stroke-width:1.0;"/><line style="stroke:#181818;stroke-width:1.0;stroke-dasharray:2.0,2.0;" x1="665.5" x2="877.5" y1="1063.6484" y2="1063.6484"/><text fill="#000000" font-family="sans-serif" font-size="13" lengthAdjust="spacing" textLength="133" x="677.5" y="1058.5825">Authentication result</text><path d="M10,1078.6484 L74,1078.6484 L74,1085.7813 L64,1095.7813 L10,1095.7813 L10,1078.6484 " fill="#EEEEEE" style="stroke:#000000;stroke-width:1.5;"/><rect fill="none" height="506.9297" style="stroke:#000000;stroke-width:1.5;" width="1644.5" x="10" y="1078.6484"/><text fill="#000000" font-family="sans-serif" font-size="13" font-weight="bold" lengthAdjust="spacing" textLength="19" x="25" y="1091.7153">alt</text><text fill="#000000" font-family="sans-serif" font-size="11" font-weight="bold" lengthAdjust="spacing" textLength="176" x="89" y="1090.8589">[Authentication successful]</text><line style="stroke:#181818;stroke-width:1.0;" x1="660.5" x2="702.5" y1="1132.0469" y2="1132.0469"/><line style="stroke:#181818;stroke-width:1.0;" x1="702.5" x2="702.5" y1="1132.0469" y2="1145.0469"/><line style="stroke:#181818;stroke-width:1.0;" x1="661.5" x2="702.5" y1="1145.0469" y2="1145.0469"/><polygon fill="#181818" points="671.5,1141.0469,661.5,1145.0469,671.5,1149.0469,667.5,1145.0469" style="stroke:#181818;stroke-width:1.0;"/><text fill="#000000" font-family="sans-serif" font-size="13" lengthAdjust="spacing" textLength="119" x="667.5" y="1111.8481">checkUserStatus()</text><text fill="#000000" font-family="sans-serif" font-size="13" lengthAdjust="spacing" textLength="189" x="667.5" y="1126.981">(enabled, verified, not locked)</text><polygon fill="#181818" points="1017.5,1170.1797,1027.5,1174.1797,1017.5,1178.1797,1021.5,1174.1797" style="stroke:#181818;stroke-width:1.0;"/><line style="stroke:#181818;stroke-width:1.0;" x1="660.5" x2="1023.5" y1="1174.1797" y2="1174.1797"/><text fill="#000000" font-family="sans-serif" font-size="13" lengthAdjust="spacing" textLength="178" x="667.5" y="1169.1138">generateToken(userDetails)</text><line style="stroke:#181818;stroke-width:1.0;" x1="1039.5" x2="1081.5" y1="1203.3125" y2="1203.3125"/><line style="stroke:#181818;stroke-width:1.0;" x1="1081.5" x2="1081.5" y1="1203.3125" y2="1216.3125"/><line style="stroke:#181818;stroke-width:1.0;" x1="1040.5" x2="1081.5" y1="1216.3125" y2="1216.3125"/><polygon fill="#181818" points="1050.5,1212.3125,1040.5,1216.3125,1050.5,1220.3125,1046.5,1216.3125" style="stroke:#181818;stroke-width:1.0;"/><text fill="#000000" font-family="sans-serif" font-size="13" lengthAdjust="spacing" textLength="134" x="1046.5" y="1198.2466">createAccessToken()</text><line style="stroke:#181818;stroke-width:1.0;" x1="1039.5" x2="1081.5" y1="1245.4453" y2="1245.4453"/><line style="stroke:#181818;stroke-width:1.0;" x1="1081.5" x2="1081.5" y1="1245.4453" y2="1258.4453"/><line style="stroke:#181818;stroke-width:1.0;" x1="1040.5" x2="1081.5" y1="1258.4453" y2="1258.4453"/><polygon fill="#181818" points="1050.5,1254.4453,1040.5,1258.4453,1050.5,1262.4453,1046.5,1258.4453" style="stroke:#181818;stroke-width:1.0;"/><text fill="#000000" font-family="sans-serif" font-size="13" lengthAdjust="spacing" textLength="137" x="1046.5" y="1240.3794">createRefreshToken()</text><polygon fill="#181818" points="671.5,1283.5781,661.5,1287.5781,671.5,1291.5781,667.5,1287.5781" style="stroke:#181818;stroke-width:1.0;"/><line style="stroke:#181818;stroke-width:1.0;stroke-dasharray:2.0,2.0;" x1="665.5" x2="1033.5" y1="1287.5781" y2="1287.5781"/><text fill="#000000" font-family="sans-serif" font-size="13" lengthAdjust="spacing" textLength="313" x="677.5" y="1282.5122">AuthResponseToken(accessToken, refreshToken)</text><polygon fill="#181818" points="1178.5,1312.7109,1188.5,1316.7109,1178.5,1320.7109,1182.5,1316.7109" style="stroke:#181818;stroke-width:1.0;"/><line style="stroke:#181818;stroke-width:1.0;" x1="660.5" x2="1184.5" y1="1316.7109" y2="1316.7109"/><text fill="#000000" font-family="sans-serif" font-size="13" lengthAdjust="spacing" textLength="144" x="667.5" y="1311.645">updateLastLogin(user)</text><polygon fill="#181818" points="1587.5,1341.8438,1597.5,1345.8438,1587.5,1349.8438,1591.5,1345.8438" style="stroke:#181818;stroke-width:1.0;"/><line style="stroke:#181818;stroke-width:1.0;" x1="1200.5" x2="1593.5" y1="1345.8438" y2="1345.8438"/><text fill="#000000" font-family="sans-serif" font-size="13" lengthAdjust="spacing" textLength="243" x="1207.5" y="1340.7778">UPDATE users SET last_login = NOW()</text><polygon fill="#181818" points="1211.5,1370.9766,1201.5,1374.9766,1211.5,1378.9766,1207.5,1374.9766" style="stroke:#181818;stroke-width:1.0;"/><line style="stroke:#181818;stroke-width:1.0;stroke-dasharray:2.0,2.0;" x1="1205.5" x2="1603.5" y1="1374.9766" y2="1374.9766"/><text fill="#000000" font-family="sans-serif" font-size="13" lengthAdjust="spacing" textLength="53" x="1217.5" y="1369.9106">Success</text><polygon fill="#181818" points="671.5,1400.1094,661.5,1404.1094,671.5,1408.1094,667.5,1404.1094" style="stroke:#181818;stroke-width:1.0;"/><line style="stroke:#181818;stroke-width:1.0;stroke-dasharray:2.0,2.0;" x1="665.5" x2="1194.5" y1="1404.1094" y2="1404.1094"/><text fill="#000000" font-family="sans-serif" font-size="13" lengthAdjust="spacing" textLength="87" x="677.5" y="1399.0435">Updated user</text><polygon fill="#181818" points="346.5,1429.2422,336.5,1433.2422,346.5,1437.2422,342.5,1433.2422" style="stroke:#181818;stroke-width:1.0;"/><line style="stroke:#181818;stroke-width:1.0;stroke-dasharray:2.0,2.0;" x1="340.5" x2="654.5" y1="1433.2422" y2="1433.2422"/><text fill="#000000" font-family="sans-serif" font-size="13" lengthAdjust="spacing" textLength="130" x="352.5" y="1428.1763">AuthResponseToken</text><polygon fill="#181818" points="57.5,1458.375,47.5,1462.375,57.5,1466.375,53.5,1462.375" style="stroke:#181818;stroke-width:1.0;"/><line style="stroke:#181818;stroke-width:1.0;stroke-dasharray:2.0,2.0;" x1="51.5" x2="329.5" y1="1462.375" y2="1462.375"/><text fill="#000000" font-family="sans-serif" font-size="13" lengthAdjust="spacing" textLength="122" x="63.5" y="1457.3091">200 OK with tokens</text><line style="stroke:#000000;stroke-width:1.0;stroke-dasharray:2.0,2.0;" x1="10" x2="1654.5" y1="1471.375" y2="1471.375"/><text fill="#000000" font-family="sans-serif" font-size="11" font-weight="bold" lengthAdjust="spacing" textLength="145" x="15" y="1481.5854">[Authentication failed]</text><line style="stroke:#181818;stroke-width:1.0;" x1="655.5" x2="697.5" y1="1506.3125" y2="1506.3125"/><line style="stroke:#181818;stroke-width:1.0;" x1="697.5" x2="697.5" y1="1506.3125" y2="1519.3125"/><line style="stroke:#181818;stroke-width:1.0;" x1="656.5" x2="697.5" y1="1519.3125" y2="1519.3125"/><polygon fill="#181818" points="666.5,1515.3125,656.5,1519.3125,666.5,1523.3125,662.5,1519.3125" style="stroke:#181818;stroke-width:1.0;"/><text fill="#000000" font-family="sans-serif" font-size="13" lengthAdjust="spacing" textLength="172" x="662.5" y="1501.2466">incrementFailedAttempts()</text><polygon fill="#181818" points="341.5,1544.4453,331.5,1548.4453,341.5,1552.4453,337.5,1548.4453" style="stroke:#181818;stroke-width:1.0;"/><line style="stroke:#181818;stroke-width:1.0;stroke-dasharray:2.0,2.0;" x1="335.5" x2="654.5" y1="1548.4453" y2="1548.4453"/><text fill="#000000" font-family="sans-serif" font-size="13" lengthAdjust="spacing" textLength="265" x="347.5" y="1543.3794">throw UserException("Invalid credentials")</text><polygon fill="#181818" points="57.5,1573.5781,47.5,1577.5781,57.5,1581.5781,53.5,1577.5781" style="stroke:#181818;stroke-width:1.0;"/><line style="stroke:#181818;stroke-width:1.0;stroke-dasharray:2.0,2.0;" x1="51.5" x2="329.5" y1="1577.5781" y2="1577.5781"/><text fill="#000000" font-family="sans-serif" font-size="13" lengthAdjust="spacing" textLength="109" x="63.5" y="1572.5122">400 Bad Request</text><rect fill="#EEEEEE" height="3" style="stroke:#EEEEEE;stroke-width:1.0;" width="1664.5" x="0" y="1613.1445"/><line style="stroke:#000000;stroke-width:1.0;" x1="0" x2="1664.5" y1="1613.1445" y2="1613.1445"/><line style="stroke:#000000;stroke-width:1.0;" x1="0" x2="1664.5" y1="1616.1445" y2="1616.1445"/><rect fill="#EEEEEE" height="23.1328" style="stroke:#000000;stroke-width:2.0;" width="148" x="758.25" y="1602.5781"/><text fill="#000000" font-family="sans-serif" font-size="13" font-weight="bold" lengthAdjust="spacing" textLength="129" x="764.25" y="1618.645">Email Verification</text><polygon fill="#181818" points="313.5,1652.8438,323.5,1656.8438,313.5,1660.8438,317.5,1656.8438" style="stroke:#181818;stroke-width:1.0;"/><line style="stroke:#181818;stroke-width:1.0;" x1="46.5" x2="319.5" y1="1656.8438" y2="1656.8438"/><text fill="#000000" font-family="sans-serif" font-size="13" lengthAdjust="spacing" textLength="198" x="53.5" y="1651.7778">GET /api/auth/verify?token=xyz</text><polygon fill="#181818" points="638.5,1681.9766,648.5,1685.9766,638.5,1689.9766,642.5,1685.9766" style="stroke:#181818;stroke-width:1.0;"/><line style="stroke:#181818;stroke-width:1.0;" x1="335.5" x2="644.5" y1="1685.9766" y2="1685.9766"/><text fill="#000000" font-family="sans-serif" font-size="13" lengthAdjust="spacing" textLength="115" x="342.5" y="1680.9106">verifyEmail(token)</text><line style="stroke:#181818;stroke-width:1.0;" x1="660.5" x2="702.5" y1="1715.1094" y2="1715.1094"/><line style="stroke:#181818;stroke-width:1.0;" x1="702.5" x2="702.5" y1="1715.1094" y2="1728.1094"/><line style="stroke:#181818;stroke-width:1.0;" x1="661.5" x2="702.5" y1="1728.1094" y2="1728.1094"/><polygon fill="#181818" points="671.5,1724.1094,661.5,1728.1094,671.5,1732.1094,667.5,1728.1094" style="stroke:#181818;stroke-width:1.0;"/><text fill="#000000" font-family="sans-serif" font-size="13" lengthAdjust="spacing" textLength="134" x="667.5" y="1710.0435">validateToken(token)</text><path d="M10,1743.1094 L74,1743.1094 L74,1750.2422 L64,1760.2422 L10,1760.2422 L10,1743.1094 " fill="#EEEEEE" style="stroke:#000000;stroke-width:1.5;"/><rect fill="none" height="438.7969" style="stroke:#000000;stroke-width:1.5;" width="1644.5" x="10" y="1743.1094"/><text fill="#000000" font-family="sans-serif" font-size="13" font-weight="bold" lengthAdjust="spacing" textLength="19" x="25" y="1756.1763">alt</text><text fill="#000000" font-family="sans-serif" font-size="11" font-weight="bold" lengthAdjust="spacing" textLength="84" x="89" y="1755.3198">[Token valid]</text><polygon fill="#181818" points="1178.5,1777.375,1188.5,1781.375,1178.5,1785.375,1182.5,1781.375" style="stroke:#181818;stroke-width:1.0;"/><line style="stroke:#181818;stroke-width:1.0;" x1="660.5" x2="1184.5" y1="1781.375" y2="1781.375"/><text fill="#000000" font-family="sans-serif" font-size="13" lengthAdjust="spacing" textLength="194" x="667.5" y="1776.3091">findByVerificationToken(token)</text><polygon fill="#181818" points="1587.5,1806.5078,1597.5,1810.5078,1587.5,1814.5078,1591.5,1810.5078" style="stroke:#181818;stroke-width:1.0;"/><line style="stroke:#181818;stroke-width:1.0;" x1="1200.5" x2="1593.5" y1="1810.5078" y2="1810.5078"/><text fill="#000000" font-family="sans-serif" font-size="13" lengthAdjust="spacing" textLength="329" x="1207.5" y="1805.4419">SELECT * FROM users WHERE verification_token = ?</text><polygon fill="#181818" points="1211.5,1835.6406,1201.5,1839.6406,1211.5,1843.6406,1207.5,1839.6406" style="stroke:#181818;stroke-width:1.0;"/><line style="stroke:#181818;stroke-width:1.0;stroke-dasharray:2.0,2.0;" x1="1205.5" x2="1603.5" y1="1839.6406" y2="1839.6406"/><text fill="#000000" font-family="sans-serif" font-size="13" lengthAdjust="spacing" textLength="30" x="1217.5" y="1834.5747">User</text><polygon fill="#181818" points="671.5,1864.7734,661.5,1868.7734,671.5,1872.7734,667.5,1868.7734" style="stroke:#181818;stroke-width:1.0;"/><line style="stroke:#181818;stroke-width:1.0;stroke-dasharray:2.0,2.0;" x1="665.5" x2="1194.5" y1="1868.7734" y2="1868.7734"/><text fill="#000000" font-family="sans-serif" font-size="13" lengthAdjust="spacing" textLength="30" x="677.5" y="1863.7075">User</text><line style="stroke:#181818;stroke-width:1.0;" x1="660.5" x2="702.5" y1="1913.0391" y2="1913.0391"/><line style="stroke:#181818;stroke-width:1.0;" x1="702.5" x2="702.5" y1="1913.0391" y2="1926.0391"/><line style="stroke:#181818;stroke-width:1.0;" x1="661.5" x2="702.5" y1="1926.0391" y2="1926.0391"/><polygon fill="#181818" points="671.5,1922.0391,661.5,1926.0391,671.5,1930.0391,667.5,1926.0391" style="stroke:#181818;stroke-width:1.0;"/><text fill="#000000" font-family="sans-serif" font-size="13" lengthAdjust="spacing" textLength="139" x="667.5" y="1892.8403">user.setEnabled(true)</text><text fill="#000000" font-family="sans-serif" font-size="13" lengthAdjust="spacing" textLength="193" x="667.5" y="1907.9731">user.setVerificationToken(null)</text><polygon fill="#181818" points="1178.5,1951.1719,1188.5,1955.1719,1178.5,1959.1719,1182.5,1955.1719" style="stroke:#181818;stroke-width:1.0;"/><line style="stroke:#181818;stroke-width:1.0;" x1="660.5" x2="1184.5" y1="1955.1719" y2="1955.1719"/><text fill="#000000" font-family="sans-serif" font-size="13" lengthAdjust="spacing" textLength="68" x="667.5" y="1950.106">save(user)</text><polygon fill="#181818" points="1587.5,1980.3047,1597.5,1984.3047,1587.5,1988.3047,1591.5,1984.3047" style="stroke:#181818;stroke-width:1.0;"/><line style="stroke:#181818;stroke-width:1.0;" x1="1200.5" x2="1593.5" y1="1984.3047" y2="1984.3047"/><text fill="#000000" font-family="sans-serif" font-size="13" lengthAdjust="spacing" textLength="380" x="1207.5" y="1979.2388">UPDATE users SET enabled = true, verification_token = null</text><polygon fill="#181818" points="1211.5,2009.4375,1201.5,2013.4375,1211.5,2017.4375,1207.5,2013.4375" style="stroke:#181818;stroke-width:1.0;"/><line style="stroke:#181818;stroke-width:1.0;stroke-dasharray:2.0,2.0;" x1="1205.5" x2="1603.5" y1="2013.4375" y2="2013.4375"/><text fill="#000000" font-family="sans-serif" font-size="13" lengthAdjust="spacing" textLength="53" x="1217.5" y="2008.3716">Success</text><polygon fill="#181818" points="671.5,2038.5703,661.5,2042.5703,671.5,2046.5703,667.5,2042.5703" style="stroke:#181818;stroke-width:1.0;"/><line style="stroke:#181818;stroke-width:1.0;stroke-dasharray:2.0,2.0;" x1="665.5" x2="1194.5" y1="2042.5703" y2="2042.5703"/><text fill="#000000" font-family="sans-serif" font-size="13" lengthAdjust="spacing" textLength="87" x="677.5" y="2037.5044">Updated user</text><polygon fill="#181818" points="346.5,2067.7031,336.5,2071.7031,346.5,2075.7031,342.5,2071.7031" style="stroke:#181818;stroke-width:1.0;"/><line style="stroke:#181818;stroke-width:1.0;stroke-dasharray:2.0,2.0;" x1="340.5" x2="654.5" y1="2071.7031" y2="2071.7031"/><text fill="#000000" font-family="sans-serif" font-size="13" lengthAdjust="spacing" textLength="175" x="352.5" y="2066.6372">"Email verified successfully"</text><polygon fill="#181818" points="57.5,2096.8359,47.5,2100.8359,57.5,2104.8359,53.5,2100.8359" style="stroke:#181818;stroke-width:1.0;"/><line style="stroke:#181818;stroke-width:1.0;stroke-dasharray:2.0,2.0;" x1="51.5" x2="329.5" y1="2100.8359" y2="2100.8359"/><text fill="#000000" font-family="sans-serif" font-size="13" lengthAdjust="spacing" textLength="46" x="63.5" y="2095.77">200 OK</text><line style="stroke:#000000;stroke-width:1.0;stroke-dasharray:2.0,2.0;" x1="10" x2="1654.5" y1="2109.8359" y2="2109.8359"/><text fill="#000000" font-family="sans-serif" font-size="11" font-weight="bold" lengthAdjust="spacing" textLength="148" x="15" y="2120.0464">[Token invalid/expired]</text><polygon fill="#181818" points="341.5,2140.7734,331.5,2144.7734,341.5,2148.7734,337.5,2144.7734" style="stroke:#181818;stroke-width:1.0;"/><line style="stroke:#181818;stroke-width:1.0;stroke-dasharray:2.0,2.0;" x1="335.5" x2="654.5" y1="2144.7734" y2="2144.7734"/><text fill="#000000" font-family="sans-serif" font-size="13" lengthAdjust="spacing" textLength="196" x="347.5" y="2139.7075">throw TokenExpiredException()</text><polygon fill="#181818" points="57.5,2169.9063,47.5,2173.9063,57.5,2177.9063,53.5,2173.9063" style="stroke:#181818;stroke-width:1.0;"/><line style="stroke:#181818;stroke-width:1.0;stroke-dasharray:2.0,2.0;" x1="51.5" x2="329.5" y1="2173.9063" y2="2173.9063"/><text fill="#000000" font-family="sans-serif" font-size="13" lengthAdjust="spacing" textLength="109" x="63.5" y="2168.8403">400 Bad Request</text><!--SRC=[pLPBR-Cs4BxhLn0voKKUYw8dezv572jjsYGERAUvBB3WIcER22Ef96N7M_I_TpZKWvBjhBtRm-OGazIy-77ccp72I61FcNgUW0Qr0ZRayJEa2JjZbuLPGcf4p8t8KdOjitKGv5pXYSXvQjZ9bHGeSCAuPcxP_cmDN6MfKPcKe4YCZeoIRS57T3r5xo86agBzAjwsreHpnrE-y8pUBLHR_8-ryKtQRTUYTJE1FDF2P6fJUxP7RS4xBgHlZFPTQoDk-6UkdSHe60I30PbZ4rW8RPH3SJ080eSLEtjVmz5d3-FfZ5tmN5nmFBjGf0FgO_eFlA2tKvPphTUPIaxPN2XjxlaBd3B9tUhVWCT6hBY11k6WMbb79Q9zLXcs1w62lmlGfjTeLyW7vQBIjPZqqNEQ33UH3IYai3gQX5oriAgZOPzDezleQiP-OjUJyHqhyAjcJxz7auYH2JPW7nehYDjeoCvQNWd4JB6qa398m9TjVFbt7ESMQYv_jIVlVPKwo81Bm-WYZ4i5FDamU4LWTC3mhxvywudCKcLh-XQzna0-mfDTDavwPAN17ysuD- -pNzwzmn9BC2a8-W2aXYgG5VxddoMqO_0k1ccS9V1GPa9OfKHlbuB3JlCLX2cixOaJsyQYKlOVxUP-6arc-3CRbqyMdf-VTopW0zZzxWUx6T77zdkrNVbNiu4cTjVLQeNPlMXPYAYEbFKNA34lwS7bQB5zwwfqxM6vRXbQG0fOgk0RcsN8Y66lhUC7xzvFMmBiHE-xUoErx0e9ECzI3I7nKbsea31Tn35eFSVytvIvrG6eSh4pvNx6b1l_sLMhUGAHQxZgDbk8WqbAMk5jXZgSZCZ04KnK4dsVyQONGDXntskxjusX_FrXo2p1Ll4MazNtjASZC6XPxwOnxsQrqefBWHxW2dF7WiIbnkIj9Vq7wBHu1RgG9kXaYKMG-B8ZtQJbNiAAbn0_qyvmKs0O7zCGKijnsCTML69sbMO6Sm7dZfBAklPSyswAqnLaqO3JAVAosTipj_IDn4ZL1YufTh-ozqbEO8wuB7U9Tg6iIjZ9yiR5AKBRMDagOI_U_LHUvFPHRx7ZKv7k8hStAVtnONGvYygSdKOp6Xu-ILVmx7xy51v8xrFtxaVH-oC5dv3t8nX-BqaIZj_8X6mjp98PQq7lPqNRbpi9FyTKWsHlieiK4-O5vQz9xj8OUCcD3dl7pXGtAPMmpR-gW8yQAKf2Trt9RsHxYVstoETrAipD1q9eyBhvSZ2VEqL7gSPb-bSdIwTOKfOhd5ALE8TEtFVzfU6eVBjbcwRQ3gkH_VI-yen_8hl4zGVFGyTLox5pKArfGpxNO297ig5H1I3fLiVR4DcXklSLvg4XyhlffkHzXCq6TReRKPhnVsWMAYV-gdcrXxF_VJQpBEHAG3XIk83NNAWk2-tW5DAAd733BKVIo7y0]--></g></svg>